<svg width="53" height="35" viewBox="0 0 53 35" fill="none" xmlns="http://www.w3.org/2000/svg">
<path d="M48.9389 34.0453C46.4603 34.0453 44.9902 32.8391 44.8777 31.1018H47.2477C47.2477 31.6809 47.5852 32.4518 49.0514 32.4998C50.0676 32.4998 50.6301 31.9207 50.6301 31.4854C50.5176 30.8104 49.6138 30.7625 48.7139 30.6149C47.6977 30.4748 46.9103 30.2793 46.3439 30.0395C45.5565 29.6522 45.1027 28.8297 45.1027 27.9629C45.1027 26.4173 46.4603 25.2112 48.8264 25.2112C51.0839 25.2112 52.5501 26.3214 52.6587 28.0108H50.4051C50.4051 27.5792 50.2926 26.8526 48.9389 26.8526C48.0351 26.8526 47.4727 26.9964 47.3602 27.6235C47.3602 28.494 49.2763 28.4461 50.7425 28.7817C52.0962 29.1211 53 29.9399 53 31.1018C53 33.2264 51.1964 34.0453 48.9389 34.0453Z" fill="#F4F4F4"/>
<path d="M5.75253 19.791L13.5335 15.4938L17.7071 22.3029H7.21873" fill="#F4F4F4"/>
<path d="M22.1145 33.7891V25.1947Z" fill="#F4F4F4"/>
<path d="M22.1145 33.7891V25.1947" stroke="#F4F4F4" stroke-width="2"/>
<path d="M2.14111 29.6192C2.14111 30.9692 3.38234 32.0794 4.73217 32.0794C6.20225 32.0794 7.32711 30.9692 7.32711 29.6192C7.32711 28.3171 6.20225 27.1589 4.73217 27.1589C3.38234 27.1589 2.14111 28.3171 2.14111 29.6192ZM4.61969 34.0602C2.14111 34.0602 0 32.0794 0 29.6192C0 27.1589 2.14111 25.2261 4.61969 25.2261C5.63594 25.2261 6.53971 25.4695 7.32711 25.997V25.322H9.58459V33.8647H7.32711V33.3335C6.65219 33.8167 5.63594 34.0602 4.61969 34.0602Z" fill="#F4F4F4"/>
<path d="M34.7358 22.3009L23.9101 4.3451L31.6909 0L45.2241 22.3009" fill="#F4F4F4"/>
<path d="M12.5169 29.6192C12.5169 30.9692 13.6456 32.0795 15.1118 32.0795C16.4617 32.0795 17.7068 30.9692 17.7068 29.6192C17.7068 28.3171 16.4617 27.1589 15.1118 27.1589C13.6456 27.1589 12.5169 28.3171 12.5169 29.6192ZM14.9994 34.0602C12.4044 34.0602 10.3758 32.0795 10.3758 29.6192C10.3758 27.1589 12.4044 25.2261 14.9994 25.2261C16.0117 25.2261 16.9155 25.4696 17.7068 25.997V22.3785H19.9604V33.8647H17.7068V33.3336C16.9155 33.8168 16.0117 34.0602 14.9994 34.0602Z" fill="#F4F4F4"/>
<path d="M14.8882 12.1162L22.7816 7.87067L31.4663 22.3003H23.2315V24.4249H20.9779V22.3003" fill="#F4F4F4"/>
<path d="M51.5377 24.4919C50.9714 24.4919 50.4089 24.0087 50.4089 23.4296C50.4089 22.8505 50.9714 22.3673 51.5377 22.3673C52.2126 22.3673 52.6664 22.8505 52.6664 23.4296C52.6664 24.0087 52.2126 24.4919 51.5377 24.4919ZM51.5377 22.5149C50.9714 22.5149 50.6339 22.9464 50.6339 23.4296C50.6339 23.9128 50.9714 24.3481 51.5377 24.3481C52.1001 24.3481 52.4376 23.9128 52.4376 23.4296C52.4376 22.9464 52.1001 22.5149 51.5377 22.5149Z" fill="#F4F4F4"/>
<path d="M51.7704 24.0125L51.5454 23.5293H51.3204V24.0125H51.1498V22.8543H51.6579C51.7704 22.8543 51.9953 23.0018 51.9953 23.1937C51.9953 23.3855 51.8829 23.4814 51.7704 23.5293L51.9953 24.0125H51.7704ZM51.5454 23.0018H51.3204V23.3855H51.5454C51.7704 23.3855 51.7704 23.3375 51.7704 23.1937C51.7704 23.0941 51.7704 23.0018 51.5454 23.0018Z" fill="#F4F4F4"/>
<path d="M36.6431 29.6192C36.6431 30.9692 37.7718 32.0795 39.238 32.0795C40.5917 32.0795 41.8291 30.9692 41.8291 29.6192C41.8291 28.3171 40.5917 27.1589 39.238 27.1589C37.7718 27.1589 36.6431 28.3171 36.6431 29.6192ZM39.1217 34.0602C36.5306 34.0602 34.502 32.0795 34.502 29.6192C34.502 27.1589 36.5306 25.2261 39.1217 25.2261C40.1379 25.2261 41.0417 25.4695 41.8291 25.997V25.322H43.9741V33.8647H41.8291V33.3336C41.0417 33.8168 40.1379 34.0602 39.1217 34.0602Z" fill="#F4F4F4"/>
<path d="M26.275 29.6192C26.275 30.9692 27.5162 32.0795 28.8699 32.0795C30.3361 32.0795 31.4649 30.9692 31.4649 29.6192C31.4649 28.3171 30.3361 27.1589 28.8699 27.1589C27.5162 27.1589 26.275 28.3171 26.275 29.6192ZM31.4649 22.3785H33.7185V33.8647H31.4649V33.3336C30.7861 33.8168 29.8823 34.0602 28.8699 34.0602C26.275 34.0602 24.1339 32.0795 24.1339 29.6192C24.1339 27.1589 26.275 25.2261 28.8699 25.2261C29.8823 25.2261 30.7861 25.4695 31.4649 25.997V22.3785Z" fill="#F4F4F4"/>
</svg>
